<?xml version="1.0" encoding="UTF-8"?>
<svg width="769px" height="750px" viewBox="0 0 769 750" version="1.1" xmlns="http://www.w3.org/2000/svg" xmlns:xlink="http://www.w3.org/1999/xlink">
    <title>Group</title>
    <g id="Page-1" stroke="none" stroke-width="1" fill="none" fill-rule="evenodd">
        <g id="Artboard" transform="translate(-128, -137)">
            <g id="poring_lifestyle_1_20200916124024_original" transform="translate(512.3667, 511.9471) scale(-1, 1) translate(-512.3667, -511.9471)translate(128.0048, 137.1266)">
                <g id="Group" transform="translate(384.3619, 374.8205) scale(-1, 1) rotate(-180) translate(-384.3619, -374.8205)translate(0, 0)">
                    <g id="Fill" transform="translate(8.7287, 6.7676)" fill="#F284A5">
                        <path d="M133.846942,669.630136 L106.553034,669.630136 L93.6165909,682.50068 C90.6615416,692.358588 90.0472198,700.742357 91.7736253,707.651987 C93.5000309,714.561617 98.4265005,720.982793 106.553034,726.915516 L122.651716,733.667652 L150.108778,733.667652 L162.422942,715.893934 L162.422942,693.370261 L150.108778,675.408284 L133.846942,669.630136 Z" id="Path-3"></path>
                        <path d="M539.015405,-1.13686838e-13 L411.496918,50.4730198 L289.994641,82.1787514 C274.991302,86.6447855 261.364792,91.002423 249.115111,95.2516637 C236.865429,99.5009045 224.777606,104.063204 212.851641,108.938563 L100.761241,172.129296 L32.6836224,240.810075 L0,331.907909 L3.64463199,390.139888 L20.5177381,453.132989 L55.4420391,504.450434 L127.177123,560.120904 L245.97416,602.521834 L404.007456,618.411916 L535.422106,602.521834 L632.71838,568.164761 L697.998359,513.744245 C709.086738,500.211189 717.294802,489.111003 722.62255,480.443686 C727.950298,471.776369 732.161361,462.672803 735.255738,453.132989 L753.509697,390.139888 L747.742452,309.205958 L697.998359,220.774866 L620.993958,130.164695 L573.079881,59.0096719 L551.584252,5.61837988 L539.015405,-1.13686838e-13 Z" id="Path-2" transform="translate(376.7548, 309.206) scale(-1, -1) translate(-376.7548, -309.206)"></path>
                    </g>
                    <g id="Stroke" transform="translate(0, 0)" fill="#000000">
                        <path d="M118.759207,744.446212 C107.795867,738.811821 104.663484,734.116496 108.422344,728.169083 C110.301773,725.038866 113.747395,725.351888 125.337211,729.108148 C154.781611,739.124843 175.142099,725.66491 163.552283,703.440369 C151.962466,681.215828 127.216641,673.703307 114.060633,688.728349 C103.097293,701.249217 92.1339527,697.492956 99.3384334,683.40698 C105.916437,670.57309 115.313586,665.251721 132.228454,665.251721 C165.431712,665.251721 192.056967,698.432021 182.34658,727.856062 C175.768576,747.263407 142.252079,756.028015 118.759207,744.446212 Z" id="Path"></path>
                        <path d="M209.911549,629.567247 C199.887924,625.184943 196.129065,617.672422 186.731916,585.431187 C177.021529,552.87693 154.468372,520.322673 97.7722419,457.092289 C34.1848692,386.662405 8.49932951,340.335193 1.29484885,284.304309 C-5.28315522,232.342706 14.450857,153.461237 32.3054395,160.347714 C37.6304904,162.538866 37.0040138,165.669083 25.1009588,198.849384 C17.5832399,219.508816 16.643525,226.708315 16.9567633,258.323507 C17.2700016,328.127347 35.4378224,365.063908 109.988535,447.701638 C168.877334,513.123173 189.551061,544.112322 203.960022,589.187447 C208.971835,604.838532 214.296886,615.48127 217.429268,616.733357 C220.87489,617.985444 233.091183,613.290118 250.632527,604.212489 C294.799126,581.361905 320.797904,571.971254 399.733953,551.937865 C480.86267,530.96541 488.380389,529.713324 489.94658,537.225845 C491.199533,544.425344 481.802384,547.555561 411.323769,565.397798 C330.821529,585.431187 311.713993,592.004643 264.72825,615.168249 C243.741285,625.497965 224.946987,633.949551 223.067558,633.949551 C221.188128,633.636529 215.2366,631.758399 209.911549,629.567247 Z" id="Path"></path>
                        <path d="M537.872038,520.322673 C535.992609,518.444542 534.426417,515.314325 534.426417,513.749217 C534.426417,511.871087 552.594238,501.54137 574.520918,490.898633 C675.696886,442.067247 730.826824,384.784275 748.994645,309.033023 C756.199126,279.295961 754.319696,231.090619 744.296071,201.979601 C717.670816,122.159067 641.240674,61.7458779 532.546987,34.8260115 C419.154727,6.65405822 272.245969,9.78427525 182.973057,42.3385323 C136.61379,59.2417043 103.410531,80.5271801 73.6528937,112.455394 C63.6292684,123.098132 57.6777409,127.167414 53.9188814,125.915327 C44.5217328,122.159067 48.5938305,114.020502 70.2072725,92.7350265 C115.626824,47.6599013 172.636193,21.6791 260.342914,6.02801482 C304.822751,-1.79752775 418.52825,-2.11054946 468.646376,5.71499311 C584.544543,23.8702519 664.420307,61.1198345 715.478148,121.533023 C758.078556,171.616496 777.49933,245.176596 764.969798,308.40698 C748.681407,388.227514 692.611753,450.205811 590.809309,501.54137 C549.775093,522.200803 542.257374,524.704976 537.872038,520.322673 Z" id="Path"></path>
                        <path d="M621.8199,303.711654 C607.724177,295.886112 602.399126,270.844375 610.85656,251.124008 C629.337619,206.987948 678.829268,236.411988 661.601162,281.487113 C652.83049,304.024676 637.481814,312.476262 621.8199,303.711654 Z" id="Path"></path>
                        <path d="M281.643118,259.888616 C271.932731,253.002138 264.415012,231.403641 266.60768,217.004643 C271.619492,188.832689 294.485888,177.87693 312.027232,195.093123 C340.845154,223.89112 313.593423,282.113157 281.643118,259.888616 Z" id="Path"></path>
                        <path d="M551.654523,226.395294 C551.028046,224.204142 550.088332,213.874426 549.148617,203.857731 C548.208902,188.519668 546.329472,184.137364 539.43823,177.87693 C524.402792,165.04304 502.78935,170.677431 491.199533,191.023841 C482.115623,206.361905 473.344951,205.735861 466.766947,189.458733 C459.875704,172.242539 448.912364,164.416996 432.623973,164.416996 C417.275297,164.416996 403.80605,175.059734 402.239859,188.832689 C401.613382,194.780102 399.107476,197.597297 394.408902,198.22334 C388.144136,199.162405 387.204421,197.910319 387.204421,188.832689 C387.204421,183.198299 390.023566,174.120669 393.469187,168.486279 C410.070816,141.25339 457.996275,140.627347 473.658189,167.234192 L478.98324,176.311821 L491.199533,166.608148 C500.283444,159.408649 507.174686,156.904476 519.704217,155.652389 C534.426417,154.400302 537.5588,155.339367 546.64271,163.16491 C564.810531,178.502973 574.20768,208.240035 565.750246,224.204142 C561.991387,230.777597 553.533953,232.342706 551.654523,226.395294 Z" id="Path"></path>
                    </g>
                </g>
            </g>
        </g>
    </g>
</svg>